<svg width="27" height="32" viewBox="0 0 27 32" fill="none" xmlns="http://www.w3.org/2000/svg">
<path d="M12.6092 1.21786C14.0217 1.02173 16.9602 -0.160658 18.3104 0.0971136C19.3315 0.293244 17.675 4.89951 15.2697 6.95048C24.5335 10.733 38.1597 33.8484 10.9527 31.8815C-8.73217 30.4581 2.55683 10.9403 10.5726 7.1298C7.87798 5.40945 6.1591 1.47563 7.16887 0.405319C8.39421 -0.922766 10.5839 1.45882 12.6092 1.21786Z" fill="#4857FC"/>
<path d="M8.70061 19.4973C8.55673 19.4021 8.39271 19.3407 8.22111 19.3179C8.0495 19.295 7.87488 19.3112 7.71061 19.3653C7.54634 19.4194 7.39678 19.5099 7.2734 19.6299C7.15001 19.7499 7.05606 19.8962 6.99875 20.0576L6.93068 20.2818C6.60193 21.5153 6.7586 22.8261 7.36912 23.9502C7.97964 25.0742 8.99866 25.9279 10.2209 26.3394L10.5897 26.4459C11.2116 26.6426 11.8669 26.7152 12.5175 26.6594C13.168 26.6036 13.8009 26.4206 14.3792 26.1209C15.5532 25.503 16.4321 24.4514 16.8242 23.1957L16.8582 23.0668C16.8861 22.9172 16.8829 22.7635 16.8488 22.6152C16.8147 22.4668 16.7503 22.3269 16.6596 22.2039C16.5557 22.0651 16.4207 21.952 16.2653 21.8733C16.1098 21.7945 15.938 21.7523 15.7633 21.75H13.982C12.6025 21.7479 11.2587 21.3166 10.1415 20.5171L8.70061 19.4973Z" fill="white"/>
</svg>
